PathFileType	4	(X/Y/Z)	Patient4_TMGait_0pt7_01_right_19.trc.trc
DataRate	CameraRate	NumFrames	NumMarkers	Units	OrigDataRate	OrigDataStartFrame	OrigNumFrames
84.848484848485	84.848484848485	4	33	mm	84.848484848485	53	       141
Frame#	Time	Sacral			L.Shoulder			Chest			R.Shoulder			Neck			R.ASIS			L.ASIS			R.Thigh.Superior			R.Thigh.Lateral			R.Thigh.Inferior			R.Patella			L.Thigh.Superior			L.Thigh.Lateral			L.Thigh.Inferior			L.Patella			L.Shank.Superior			L.Shank.Lateral			L.Shank.Inferior			R.Shank.Superior			R.Shank.Lateral			R.Shank.Inferior			R.Heel			R.Midfoot.Superior			R.Midfoot.Lateral			R.Toe			L.Heel			L.Midfoot.Lateral			L.Midfoot.Superior			L.Toe			L.Elbow			L.Wrist			R.Elbow			R.Wrist			
		X1	Y1	Z1	X2	Y2	Z2	X3	Y3	Z3	X4	Y4	Z4	X5	Y5	Z5	X6	Y6	Z6	X7	Y7	Z7	X8	Y8	Z8	X9	Y9	Z9	X10	Y10	Z10	X11	Y11	Z11	X12	Y12	Z12	X13	Y13	Z13	X14	Y14	Z14	X15	Y15	Z15	X16	Y16	Z16	X17	Y17	Z17	X18	Y18	Z18	X19	Y19	Z19	X20	Y20	Z20	X21	Y21	Z21	X22	Y22	Z22	X23	Y23	Z23	X24	Y24	Z24	X25	Y25	Z25	X26	Y26	Z26	X27	Y27	Z27	X28	Y28	Z28	X29	Y29	Z29	X30	Y30	Z30	X31	Y31	Z31	X32	Y32	Z32	X33	Y33	Z33	

53	21.842857142857	826.379640509061	1009.465858655055	536.657800227713	1007.286081870418	1438.067996139319	350.754490449817	1121.140372111617	1359.126486781609	500.993404833362	1057.331597909299	1433.777157243351	682.441546220337	1027.048066525623	1494.049000869437	507.415052719507	1059.093277600522	947.280447643512	640.479788012958	1028.956697555066	962.046414781102	367.395163691586	1084.712998549122	743.810120201078	614.717776347055	996.155201787933	637.410880585660	673.067487339521	1071.018074539067	582.235359314222	595.152468270720	1065.167258930397	495.983541109151	599.830947454039	1117.734305629942	793.012735440505	384.305599452692	1077.015517151531	665.280666628517	302.225825776402	1188.249664084535	609.364291825727	352.347340961473	1211.843266658635	528.030077945802	341.200166037938	1166.626227745953	451.393630819418	334.580879386675	1046.803104301213	364.640768198784	289.212945276919	1083.646680313444	237.329711272289	338.325317152931	1038.212553317431	407.822619516409	602.896683763367	963.961231539542	302.207065543609	658.239822660148	1011.582908147175	209.468133563823	593.319718261451	880.012597711663	42.650694658001	554.549247476470	1052.222008521106	98.376662842840	589.050871468623	964.798038476631	36.560038733922	626.780688633665	1172.320751998664	46.930117680140	612.333183534872	932.698825525235	104.845946625624	380.110220597399	996.227246457182	91.120393191051	293.100038223224	1092.343221951432	135.268085433687	311.119661426668	1202.755667089096	62.583791696416	267.819161478489	941.180783529390	1091.451567705571	237.471851043318	1059.320875105177	858.070676512119	237.385893933203	1104.044758815619	1087.152784307384	804.986080455695	1278.278222826595	894.814397012664	767.873044373044	
54	21.854642857143	825.200653713597	1009.401833313283	537.008390698349	1005.944236433416	1437.602464801376	350.987207117520	1120.284481363772	1358.639353892326	500.798402984825	1057.320780149287	1433.276913740317	682.516980369468	1026.437824327459	1493.667928943262	507.683729296065	1057.965037097889	947.266699867303	640.557792171084	1027.543954815276	961.413189468696	367.497751816649	1081.464251466463	743.162523644273	614.664800331733	991.804143946631	637.408227976402	673.368499860350	1065.628641327334	581.565084721956	595.448970618686	1058.814372345149	495.501163421539	599.992884100277	1116.448899502967	793.496110548396	384.830139167335	1076.931630843073	665.659855359651	302.094317270514	1187.880331188907	610.331879035132	353.063049362261	1212.998601441975	531.054062440301	341.716169618946	1171.924073204596	454.021378902513	334.155905064975	1058.506251475936	360.198813349322	287.122165460015	1103.435405461646	234.977498117863	335.474422123501	1031.447001509550	407.499305769264	603.065548206064	956.800275304168	302.156589277366	658.388606119648	1003.926537259428	209.240986648611	593.335622965159	871.728228134791	42.649894888339	554.560156006512	1043.981669707031	98.324934874472	589.082932930077	956.497937100839	36.546765994180	626.791317762383	1164.032724244755	46.769088656090	612.420559705897	961.230116491734	93.391272826720	375.455565357185	1026.296804079811	83.409859290536	289.011169810753	1119.512097994167	132.956454714868	307.857311268210	1234.319948057921	66.581389039331	265.636113313447	932.381991419583	1091.704273110382	239.935129064676	1033.525020568150	850.385719939841	236.733447079652	1114.944062796274	1088.598319661700	804.325372584705	1300.869693247257	909.127552621107	761.910702778935	
55	21.866428571429	824.136132667360	1009.280176944794	537.188012814148	1004.794646268155	1437.097726740318	351.052333033617	1119.512178423961	1358.096010142444	500.504513457570	1057.258902343220	1432.732171264047	682.439244514210	1025.885437268595	1493.233721655601	507.785550261558	1056.883124242766	947.212899916024	640.553860225760	1026.363718574466	960.734816674906	367.450068955475	1078.299095547754	742.446124794562	614.675267798312	987.405425324314	637.385520852074	673.597516461266	1060.212938685814	580.872066315024	595.709609832431	1052.410378044946	495.007469705070	600.090491115885	1114.867266608520	793.390388374471	385.310711999695	1076.208990945885	665.578255223573	301.880257686189	1186.761355444417	610.587508125744	353.798861976108	1213.267252246831	533.511594712888	342.352380782665	1176.383863191864	456.470311359803	333.854573852021	1069.952312922077	355.953387689186	285.049815576771	1122.832308381742	233.414250770343	332.814751957881	1024.623720783974	407.186708686080	603.179405196567	949.616671439388	302.115553100844	658.526214630863	996.234836856861	209.032058077314	593.329866257299	863.428123378699	42.653673706717	554.574061455388	1035.726272542894	98.280394098028	589.117957335385	948.191200907114	36.532437245655	626.806671222023	1155.734769154465	46.620572899973	612.501018869596	989.912610053950	83.375594954394	370.938424884945	1056.482149873637	77.007828731084	285.212648917076	1146.467553343181	131.740886316044	304.915329076199	1265.318764453014	71.770872669227	264.160413140563	923.814641446684	1092.219058481311	242.084106099331	1007.867122363256	844.491997572454	236.386487640485	1125.234114428122	1090.274902165794	803.218309053097	1322.179672720933	925.027845719822	755.223261660569	
56	21.878214285714	823.199012648291	1009.118810019277	537.200327794210	1003.844887553646	1436.569151002165	350.942443964211	1118.828081820184	1357.516822031857	500.111564706917	1057.143676980465	1432.169429120838	682.203258426943	1025.396165724359	1492.762774659833	507.708918893291	1055.869188137137	947.124207007359	640.489320562367	1025.408789323267	960.025797089198	367.263150466284	1075.221158382504	741.659442124230	614.758292321345	982.959913308996	637.350957059873	673.755017508782	1054.781997837717	580.155030428022	595.932394682075	1045.970160606599	494.503256074445	600.130996693876	1113.038664450330	792.750354680159	385.715424168772	1074.894528783136	665.079153684643	301.549381376640	1185.002829494791	610.209391790304	354.466544431877	1212.756651706767	535.439675834635	343.051057572608	1180.049517722197	458.748767352617	333.650194643590	1081.033238572240	352.010706223643	283.049597076258	1141.595387541129	232.698066492850	330.417901738794	1017.748924971455	406.886478160336	603.236144432094	942.403439457133	302.093372744113	658.647430415616	988.505692202464	208.846024347778	593.307821350685	855.111811378401	42.660713926053	554.591891199354	1027.452600604655	98.243129557841	589.155156740847	939.876911460962	36.519338986425	626.829736170882	1147.426566973011	46.492274557052	612.574966570958	1018.325815761303	74.965462881318	366.714834631096	1086.342887265585	72.014661842832	281.836719978882	1172.840358241666	131.671161963032	302.369300817367	1295.348391101622	78.106220761086	263.430574964780	915.525979263478	1093.012616021333	243.875107150840	982.668583280628	840.353976229972	236.350197453846	1134.893086807229	1092.146455752579	801.640161932976	1341.996707155648	942.429303613125	747.897111774953	
